<mxfile host="Electron" modified="2024-07-30T00:10:18.492Z" agent="Mozilla/5.0 (Windows NT 10.0; Win64; x64) AppleWebKit/537.36 (KHTML, like Gecko) draw.io/24.4.8 Chrome/124.0.6367.207 Electron/30.0.6 Safari/537.36" etag="jqx1Ft2516hXBrNuCjnO" version="24.4.8" type="device" pages="2">
  <diagram name="オブジェクト図1" id="TrruCWZ4-FaREWCGIhBu">
    <mxGraphModel dx="1148" dy="547" grid="0" gridSize="10" guides="1" tooltips="1" connect="1" arrows="1" fold="1" page="0" pageScale="1" pageWidth="827" pageHeight="1169" math="0" shadow="0">
      <root>
        <mxCell id="0" />
        <mxCell id="1" parent="0" />
        <mxCell id="o1hXXkpbLTOXc-1GRVP--1" value="食材一覧表に牛乳と豆腐が登録されている。&lt;br style=&quot;font-size: 16px;&quot;&gt;その後ユーザは、&lt;br style=&quot;font-size: 16px;&quot;&gt;納豆3個（賞味期限は2024/5/28）と牛乳2本（賞味期限は2024/05/30）を購入した。&lt;br style=&quot;font-size: 16px;&quot;&gt;牛乳は買い物リストにあるので、買い物リストから賞味期限管理リストへ移動し、&lt;br style=&quot;font-size: 16px;&quot;&gt;納豆は賞味期限管理リストから新たに登録した。" style="text;html=1;fillColor=#f5f5f5;align=left;verticalAlign=middle;whiteSpace=wrap;rounded=0;fontSize=16;strokeColor=#666666;fontColor=#333333;" vertex="1" parent="1">
          <mxGeometry x="50" y="145" width="670" height="115" as="geometry" />
        </mxCell>
        <mxCell id="o1hXXkpbLTOXc-1GRVP--2" value="&lt;font style=&quot;font-size: 14px;&quot;&gt;&lt;u&gt;賞味期限管理リスト：リスト&lt;/u&gt;&lt;/font&gt;" style="swimlane;whiteSpace=wrap;html=1;startSize=23;fillColor=none;" vertex="1" parent="1">
          <mxGeometry x="50" y="300" width="300" height="90" as="geometry" />
        </mxCell>
        <mxCell id="o1hXXkpbLTOXc-1GRVP--3" value="&lt;div style=&quot;text-align: left;&quot;&gt;&lt;span style=&quot;font-size: 14px; background-color: initial;&quot;&gt;リスト名＝賞味期限管理リスト&lt;/span&gt;&lt;/div&gt;&lt;font style=&quot;font-size: 14px;&quot;&gt;&lt;div style=&quot;text-align: left;&quot;&gt;&lt;span style=&quot;background-color: initial;&quot;&gt;日付＝2024/5/25&lt;/span&gt;&lt;/div&gt;&lt;/font&gt;" style="text;html=1;align=center;verticalAlign=middle;resizable=0;points=[];autosize=1;fillColor=none;" vertex="1" parent="o1hXXkpbLTOXc-1GRVP--2">
          <mxGeometry x="40" y="30" width="220" height="50" as="geometry" />
        </mxCell>
        <mxCell id="o1hXXkpbLTOXc-1GRVP--4" value="&lt;font style=&quot;font-size: 14px;&quot;&gt;&lt;u&gt;食材一覧表：リスト&lt;/u&gt;&lt;/font&gt;" style="swimlane;whiteSpace=wrap;html=1;startSize=23;fillColor=none;" vertex="1" parent="1">
          <mxGeometry x="550" y="300" width="230" height="90" as="geometry" />
        </mxCell>
        <mxCell id="o1hXXkpbLTOXc-1GRVP--5" value="&lt;div style=&quot;text-align: left;&quot;&gt;&lt;span style=&quot;font-size: 14px; background-color: initial;&quot;&gt;リスト名＝食材一覧表&lt;/span&gt;&lt;/div&gt;&lt;font style=&quot;font-size: 14px;&quot;&gt;&lt;div style=&quot;text-align: left;&quot;&gt;&lt;span style=&quot;background-color: initial;&quot;&gt;日付＝2024/5/25&lt;/span&gt;&lt;/div&gt;&lt;/font&gt;" style="text;html=1;align=center;verticalAlign=middle;resizable=0;points=[];autosize=1;fillColor=none;" vertex="1" parent="o1hXXkpbLTOXc-1GRVP--4">
          <mxGeometry x="30" y="30" width="160" height="50" as="geometry" />
        </mxCell>
        <mxCell id="o1hXXkpbLTOXc-1GRVP--6" value="&lt;font style=&quot;font-size: 14px;&quot;&gt;&lt;u&gt;納豆：食材&lt;/u&gt;&lt;/font&gt;" style="swimlane;whiteSpace=wrap;html=1;startSize=30;fillColor=none;" vertex="1" parent="1">
          <mxGeometry x="50" y="490" width="130" height="130" as="geometry" />
        </mxCell>
        <mxCell id="o1hXXkpbLTOXc-1GRVP--7" value="&lt;font style=&quot;font-size: 14px;&quot;&gt;食材名＝納豆&lt;br&gt;数＝3&lt;br&gt;日付＝2024/5/27&lt;br&gt;&lt;/font&gt;" style="text;html=1;align=left;verticalAlign=middle;resizable=0;points=[];autosize=1;fillColor=none;" vertex="1" parent="o1hXXkpbLTOXc-1GRVP--6">
          <mxGeometry y="49" width="122" height="62" as="geometry" />
        </mxCell>
        <mxCell id="o1hXXkpbLTOXc-1GRVP--8" value="" style="endArrow=none;html=1;fontSize=14;elbow=vertical;exitX=0.5;exitY=0;exitDx=0;exitDy=0;entryX=0.5;entryY=1;entryDx=0;entryDy=0;fillColor=none;" edge="1" parent="1" source="o1hXXkpbLTOXc-1GRVP--6" target="o1hXXkpbLTOXc-1GRVP--2">
          <mxGeometry width="50" height="50" relative="1" as="geometry">
            <mxPoint x="420" y="550" as="sourcePoint" />
            <mxPoint x="180" y="410" as="targetPoint" />
          </mxGeometry>
        </mxCell>
        <mxCell id="o1hXXkpbLTOXc-1GRVP--9" value="&lt;span style=&quot;font-size: 14px;&quot;&gt;&lt;u&gt;牛乳：食材&lt;/u&gt;&lt;/span&gt;" style="swimlane;whiteSpace=wrap;html=1;startSize=30;fillColor=none;" vertex="1" parent="1">
          <mxGeometry x="230" y="490" width="140" height="125" as="geometry" />
        </mxCell>
        <mxCell id="o1hXXkpbLTOXc-1GRVP--10" value="&lt;font style=&quot;font-size: 14px;&quot;&gt;食材名＝牛乳&lt;br&gt;数＝2&lt;br&gt;日付＝2024/05/30&lt;br&gt;&lt;/font&gt;" style="text;html=1;align=left;verticalAlign=middle;resizable=0;points=[];autosize=1;fillColor=none;" vertex="1" parent="o1hXXkpbLTOXc-1GRVP--9">
          <mxGeometry y="44" width="130" height="62" as="geometry" />
        </mxCell>
        <mxCell id="o1hXXkpbLTOXc-1GRVP--11" value="" style="endArrow=none;html=1;fontSize=14;elbow=vertical;exitX=0.5;exitY=0;exitDx=0;exitDy=0;entryX=0.5;entryY=1;entryDx=0;entryDy=0;fillColor=none;" edge="1" parent="1" source="o1hXXkpbLTOXc-1GRVP--9" target="o1hXXkpbLTOXc-1GRVP--2">
          <mxGeometry width="50" height="50" relative="1" as="geometry">
            <mxPoint x="252.5" y="569.9999999999998" as="sourcePoint" />
            <mxPoint x="80" y="400" as="targetPoint" />
          </mxGeometry>
        </mxCell>
        <mxCell id="o1hXXkpbLTOXc-1GRVP--12" value="" style="endArrow=none;html=1;fontSize=14;elbow=vertical;entryX=1;entryY=0.5;entryDx=0;entryDy=0;exitX=0;exitY=0.5;exitDx=0;exitDy=0;fillColor=none;" edge="1" parent="1" source="o1hXXkpbLTOXc-1GRVP--4" target="o1hXXkpbLTOXc-1GRVP--2">
          <mxGeometry width="50" height="50" relative="1" as="geometry">
            <mxPoint x="470" y="350" as="sourcePoint" />
            <mxPoint x="285" y="410" as="targetPoint" />
          </mxGeometry>
        </mxCell>
        <mxCell id="o1hXXkpbLTOXc-1GRVP--13" value="&lt;font style=&quot;font-size: 14px;&quot;&gt;&lt;u&gt;豆腐：食材&lt;/u&gt;&lt;/font&gt;" style="swimlane;whiteSpace=wrap;html=1;startSize=30;fillColor=none;" vertex="1" parent="1">
          <mxGeometry x="605" y="490" width="120" height="130" as="geometry" />
        </mxCell>
        <mxCell id="o1hXXkpbLTOXc-1GRVP--14" value="&lt;font style=&quot;font-size: 14px;&quot;&gt;食材名 ＝ 豆腐&lt;br&gt;数＝ 0&lt;br&gt;日付＝ 0&lt;br&gt;&lt;/font&gt;" style="text;html=1;align=left;verticalAlign=middle;resizable=0;points=[];autosize=1;fillColor=none;" vertex="1" parent="o1hXXkpbLTOXc-1GRVP--13">
          <mxGeometry y="49" width="110" height="62" as="geometry" />
        </mxCell>
        <mxCell id="o1hXXkpbLTOXc-1GRVP--15" value="" style="endArrow=none;html=1;exitX=0.5;exitY=0;exitDx=0;exitDy=0;entryX=0.5;entryY=1;entryDx=0;entryDy=0;fillColor=none;" edge="1" parent="1" source="o1hXXkpbLTOXc-1GRVP--13" target="o1hXXkpbLTOXc-1GRVP--4">
          <mxGeometry width="50" height="50" relative="1" as="geometry">
            <mxPoint x="620" y="440" as="sourcePoint" />
            <mxPoint x="670" y="430" as="targetPoint" />
          </mxGeometry>
        </mxCell>
      </root>
    </mxGraphModel>
  </diagram>
  <diagram id="EW-bOOhxHRxlaXzyGN_P" name="オブジェクト図2">
    <mxGraphModel dx="1148" dy="547" grid="0" gridSize="10" guides="1" tooltips="1" connect="1" arrows="1" fold="1" page="0" pageScale="1" pageWidth="827" pageHeight="1169" math="0" shadow="0">
      <root>
        <mxCell id="0" />
        <mxCell id="1" parent="0" />
        <mxCell id="C-NjhR2-pDMDh55B9zGp-1" value="&lt;font style=&quot;font-size: 14px;&quot;&gt;&lt;u&gt;卵：食材&lt;/u&gt;&lt;/font&gt;" style="swimlane;whiteSpace=wrap;html=1;fillColor=#f5f5f5;fontColor=#333333;strokeColor=#666666;" vertex="1" parent="1">
          <mxGeometry x="70" y="500" width="140" height="99" as="geometry" />
        </mxCell>
        <mxCell id="C-NjhR2-pDMDh55B9zGp-2" value="&lt;font style=&quot;font-size: 14px;&quot;&gt;食材名＝卵&lt;br&gt;数＝10&lt;br&gt;日付＝2024/6/1&lt;br&gt;&lt;/font&gt;" style="text;html=1;align=left;verticalAlign=middle;resizable=0;points=[];autosize=1;strokeColor=none;fillColor=none;fontColor=#333333;" vertex="1" parent="C-NjhR2-pDMDh55B9zGp-1">
          <mxGeometry x="10" y="29" width="115" height="62" as="geometry" />
        </mxCell>
        <mxCell id="C-NjhR2-pDMDh55B9zGp-3" value="&lt;font style=&quot;font-size: 14px;&quot;&gt;&lt;u&gt;賞味期限管理リスト：リスト&lt;/u&gt;&lt;/font&gt;" style="swimlane;whiteSpace=wrap;html=1;startSize=23;fillColor=#f5f5f5;fontColor=#333333;strokeColor=#666666;" vertex="1" parent="1">
          <mxGeometry x="85" y="260" width="300" height="90" as="geometry" />
        </mxCell>
        <mxCell id="C-NjhR2-pDMDh55B9zGp-4" value="&lt;div style=&quot;text-align: left;&quot;&gt;&lt;span style=&quot;font-size: 14px; background-color: initial;&quot;&gt;リスト名＝賞味期限管理リスト&lt;/span&gt;&lt;/div&gt;&lt;font style=&quot;font-size: 14px;&quot;&gt;&lt;div style=&quot;text-align: left;&quot;&gt;&lt;span style=&quot;background-color: initial;&quot;&gt;日付＝2024/5/25&lt;/span&gt;&lt;/div&gt;&lt;/font&gt;" style="text;html=1;align=center;verticalAlign=middle;resizable=0;points=[];autosize=1;strokeColor=none;fillColor=none;fontColor=#333333;" vertex="1" parent="C-NjhR2-pDMDh55B9zGp-3">
          <mxGeometry x="20" y="30" width="220" height="50" as="geometry" />
        </mxCell>
        <mxCell id="C-NjhR2-pDMDh55B9zGp-5" value="" style="endArrow=none;html=1;fontSize=14;elbow=vertical;exitX=0.5;exitY=0;exitDx=0;exitDy=0;entryX=0.5;entryY=1;entryDx=0;entryDy=0;fillColor=#f5f5f5;strokeColor=#666666;fontColor=#333333;" edge="1" parent="1" source="C-NjhR2-pDMDh55B9zGp-1" target="C-NjhR2-pDMDh55B9zGp-3">
          <mxGeometry width="50" height="50" relative="1" as="geometry">
            <mxPoint x="155" y="310" as="sourcePoint" />
            <mxPoint x="145" y="280" as="targetPoint" />
          </mxGeometry>
        </mxCell>
        <mxCell id="C-NjhR2-pDMDh55B9zGp-6" value="&lt;h3&gt;ユーザは2024年6月1日期限の卵を10個購入し、食材を登録した。&lt;br&gt;ユーザは卵を3個使ったので、在庫数を7個に変更した。&lt;/h3&gt;&lt;h3&gt;納豆の在庫数は0で、買い物リストに移動した。&lt;/h3&gt;" style="text;html=1;align=left;verticalAlign=middle;resizable=0;points=[];autosize=1;strokeColor=#666666;fillColor=#f5f5f5;fontSize=14;fontColor=#333333;" vertex="1" parent="1">
          <mxGeometry x="80" y="81" width="500" height="120" as="geometry" />
        </mxCell>
        <mxCell id="C-NjhR2-pDMDh55B9zGp-7" value="&lt;font style=&quot;font-size: 14px;&quot;&gt;&lt;u&gt;納豆：食材&lt;/u&gt;&lt;/font&gt;" style="swimlane;whiteSpace=wrap;html=1;startSize=23;fillColor=#f5f5f5;fontColor=#333333;strokeColor=#666666;" vertex="1" parent="1">
          <mxGeometry x="625" y="460" width="120" height="105" as="geometry" />
        </mxCell>
        <mxCell id="C-NjhR2-pDMDh55B9zGp-8" value="&lt;font style=&quot;font-size: 14px;&quot;&gt;食材名＝納豆&lt;br&gt;数＝０&lt;br&gt;日付＝なし&lt;br&gt;&lt;br&gt;&lt;/font&gt;" style="text;html=1;align=left;verticalAlign=middle;resizable=0;points=[];autosize=1;strokeColor=none;fillColor=none;fontColor=#333333;" vertex="1" parent="C-NjhR2-pDMDh55B9zGp-7">
          <mxGeometry y="36" width="102" height="79" as="geometry" />
        </mxCell>
        <mxCell id="C-NjhR2-pDMDh55B9zGp-9" value="&lt;font style=&quot;font-size: 14px;&quot;&gt;&lt;u&gt;食材一覧表：リスト&lt;/u&gt;&lt;/font&gt;" style="swimlane;whiteSpace=wrap;html=1;startSize=23;fillColor=#f5f5f5;fontColor=#333333;strokeColor=#666666;" vertex="1" parent="1">
          <mxGeometry x="570" y="260" width="230" height="90" as="geometry" />
        </mxCell>
        <mxCell id="C-NjhR2-pDMDh55B9zGp-10" value="&lt;div style=&quot;text-align: left;&quot;&gt;&lt;span style=&quot;font-size: 14px; background-color: initial;&quot;&gt;リスト名＝食材一覧表&lt;/span&gt;&lt;/div&gt;&lt;font style=&quot;font-size: 14px;&quot;&gt;&lt;div style=&quot;text-align: left;&quot;&gt;&lt;span style=&quot;background-color: initial;&quot;&gt;日付＝2024/5/25&lt;/span&gt;&lt;/div&gt;&lt;/font&gt;" style="text;html=1;align=center;verticalAlign=middle;resizable=0;points=[];autosize=1;strokeColor=none;fillColor=none;fontColor=#333333;" vertex="1" parent="C-NjhR2-pDMDh55B9zGp-9">
          <mxGeometry x="30" y="20" width="160" height="50" as="geometry" />
        </mxCell>
        <mxCell id="C-NjhR2-pDMDh55B9zGp-11" value="" style="endArrow=none;html=1;fontSize=14;elbow=vertical;exitX=0.5;exitY=0;exitDx=0;exitDy=0;entryX=0.5;entryY=1;entryDx=0;entryDy=0;fillColor=#f5f5f5;strokeColor=#666666;fontColor=#333333;" edge="1" parent="1" source="C-NjhR2-pDMDh55B9zGp-7" target="C-NjhR2-pDMDh55B9zGp-9">
          <mxGeometry width="50" height="50" relative="1" as="geometry">
            <mxPoint x="720" y="235" as="sourcePoint" />
            <mxPoint x="690" y="340" as="targetPoint" />
          </mxGeometry>
        </mxCell>
        <mxCell id="C-NjhR2-pDMDh55B9zGp-12" value="&lt;font style=&quot;font-size: 14px;&quot;&gt;&lt;u&gt;豆腐：食材&lt;/u&gt;&lt;/font&gt;" style="swimlane;whiteSpace=wrap;html=1;startSize=23;fillColor=#f5f5f5;fontColor=#333333;strokeColor=#666666;" vertex="1" parent="1">
          <mxGeometry x="273" y="500" width="130" height="101" as="geometry" />
        </mxCell>
        <mxCell id="C-NjhR2-pDMDh55B9zGp-13" value="&lt;font style=&quot;font-size: 14px;&quot;&gt;食材名＝豆腐&lt;br&gt;数＝１&lt;br&gt;日付＝2024/5/28&lt;br&gt;&lt;/font&gt;" style="text;html=1;align=left;verticalAlign=middle;resizable=0;points=[];autosize=1;strokeColor=none;fillColor=none;fontColor=#333333;" vertex="1" parent="C-NjhR2-pDMDh55B9zGp-12">
          <mxGeometry x="4" y="30" width="122" height="62" as="geometry" />
        </mxCell>
        <mxCell id="C-NjhR2-pDMDh55B9zGp-14" value="" style="endArrow=none;html=1;fontSize=14;elbow=vertical;exitX=0.5;exitY=0;exitDx=0;exitDy=0;entryX=0.5;entryY=1;entryDx=0;entryDy=0;fillColor=#f5f5f5;strokeColor=#666666;fontColor=#333333;" edge="1" parent="1" source="C-NjhR2-pDMDh55B9zGp-12" target="C-NjhR2-pDMDh55B9zGp-3">
          <mxGeometry width="50" height="50" relative="1" as="geometry">
            <mxPoint x="455" y="450" as="sourcePoint" />
            <mxPoint x="315" y="380" as="targetPoint" />
          </mxGeometry>
        </mxCell>
        <mxCell id="C-NjhR2-pDMDh55B9zGp-15" value="" style="endArrow=none;html=1;fontSize=14;elbow=vertical;exitX=0;exitY=0.5;exitDx=0;exitDy=0;entryX=1;entryY=0.5;entryDx=0;entryDy=0;fillColor=#f5f5f5;strokeColor=#666666;fontColor=#333333;" edge="1" parent="1" source="C-NjhR2-pDMDh55B9zGp-9" target="C-NjhR2-pDMDh55B9zGp-3">
          <mxGeometry width="50" height="50" relative="1" as="geometry">
            <mxPoint x="440" y="300" as="sourcePoint" />
            <mxPoint x="315" y="180" as="targetPoint" />
          </mxGeometry>
        </mxCell>
      </root>
    </mxGraphModel>
  </diagram>
</mxfile>
